<svg width="176" height="46" viewBox="0 0 176 46" fill="none" xmlns="http://www.w3.org/2000/svg">
<path d="M10.7064 6.87317C9.98748 7.59189 9.58347 8.56675 9.58325 9.58333V40.25L22.9999 33.5417L36.4166 40.25V9.58333C36.4166 8.56667 36.0127 7.59165 35.2938 6.87276C34.5749 6.15387 33.5999 5.75 32.5833 5.75H13.4166C12.4 5.75022 11.4251 6.15423 10.7064 6.87317Z" stroke="#81D8F7" stroke-width="3.83333" stroke-linecap="round" stroke-linejoin="round"/>
<path d="M63.7727 21H62.3636C62.2803 20.5947 62.1345 20.2386 61.9261 19.9318C61.7216 19.625 61.4716 19.3674 61.1761 19.1591C60.8845 18.947 60.5606 18.7879 60.2045 18.6818C59.8485 18.5758 59.4773 18.5227 59.0909 18.5227C58.3864 18.5227 57.7481 18.7008 57.1761 19.0568C56.608 19.4129 56.1553 19.9375 55.8182 20.6307C55.4848 21.3239 55.3182 22.1742 55.3182 23.1818C55.3182 24.1894 55.4848 25.0398 55.8182 25.733C56.1553 26.4261 56.608 26.9508 57.1761 27.3068C57.7481 27.6629 58.3864 27.8409 59.0909 27.8409C59.4773 27.8409 59.8485 27.7879 60.2045 27.6818C60.5606 27.5758 60.8845 27.4186 61.1761 27.2102C61.4716 26.9981 61.7216 26.7386 61.9261 26.4318C62.1345 26.1212 62.2803 25.7652 62.3636 25.3636H63.7727C63.6667 25.9583 63.4735 26.4905 63.1932 26.9602C62.9129 27.4299 62.5644 27.8295 62.1477 28.1591C61.7311 28.4848 61.2633 28.733 60.7443 28.9034C60.2292 29.0739 59.678 29.1591 59.0909 29.1591C58.0985 29.1591 57.2159 28.9167 56.4432 28.4318C55.6705 27.947 55.0625 27.2576 54.6193 26.3636C54.1761 25.4697 53.9545 24.4091 53.9545 23.1818C53.9545 21.9545 54.1761 20.8939 54.6193 20C55.0625 19.1061 55.6705 18.4167 56.4432 17.9318C57.2159 17.447 58.0985 17.2045 59.0909 17.2045C59.678 17.2045 60.2292 17.2898 60.7443 17.4602C61.2633 17.6307 61.7311 17.8807 62.1477 18.2102C62.5644 18.536 62.9129 18.9337 63.1932 19.4034C63.4735 19.8693 63.6667 20.4015 63.7727 21ZM75.8679 23.1818C75.8679 24.4091 75.6463 25.4697 75.2031 26.3636C74.7599 27.2576 74.152 27.947 73.3793 28.4318C72.6065 28.9167 71.724 29.1591 70.7315 29.1591C69.7391 29.1591 68.8565 28.9167 68.0838 28.4318C67.3111 27.947 66.7031 27.2576 66.2599 26.3636C65.8168 25.4697 65.5952 24.4091 65.5952 23.1818C65.5952 21.9545 65.8168 20.8939 66.2599 20C66.7031 19.1061 67.3111 18.4167 68.0838 17.9318C68.8565 17.447 69.7391 17.2045 70.7315 17.2045C71.724 17.2045 72.6065 17.447 73.3793 17.9318C74.152 18.4167 74.7599 19.1061 75.2031 20C75.6463 20.8939 75.8679 21.9545 75.8679 23.1818ZM74.5043 23.1818C74.5043 22.1742 74.3357 21.3239 73.9986 20.6307C73.6652 19.9375 73.2126 19.4129 72.6406 19.0568C72.0724 18.7008 71.4361 18.5227 70.7315 18.5227C70.027 18.5227 69.3887 18.7008 68.8168 19.0568C68.2486 19.4129 67.7959 19.9375 67.4588 20.6307C67.1255 21.3239 66.9588 22.1742 66.9588 23.1818C66.9588 24.1894 67.1255 25.0398 67.4588 25.733C67.7959 26.4261 68.2486 26.9508 68.8168 27.3068C69.3887 27.6629 70.027 27.8409 70.7315 27.8409C71.4361 27.8409 72.0724 27.6629 72.6406 27.3068C73.2126 26.9508 73.6652 26.4261 73.9986 25.733C74.3357 25.0398 74.5043 24.1894 74.5043 23.1818ZM87.4645 17.3636V29H86.1009L79.7599 19.8636H79.6463V29H78.2372V17.3636H79.6009L85.9645 26.5227H86.0781V17.3636H87.4645ZM89.6477 18.6136V17.3636H98.375V18.6136H94.7159V29H93.3068V18.6136H89.6477ZM99.6676 29H98.1903L102.463 17.3636H103.918L108.19 29H106.713L103.236 19.2045H103.145L99.6676 29ZM100.213 24.4545H106.168V25.7045H100.213V24.4545ZM118.82 21H117.411C117.327 20.5947 117.181 20.2386 116.973 19.9318C116.768 19.625 116.518 19.3674 116.223 19.1591C115.931 18.947 115.607 18.7879 115.251 18.6818C114.895 18.5758 114.524 18.5227 114.138 18.5227C113.433 18.5227 112.795 18.7008 112.223 19.0568C111.655 19.4129 111.202 19.9375 110.865 20.6307C110.532 21.3239 110.365 22.1742 110.365 23.1818C110.365 24.1894 110.532 25.0398 110.865 25.733C111.202 26.4261 111.655 26.9508 112.223 27.3068C112.795 27.6629 113.433 27.8409 114.138 27.8409C114.524 27.8409 114.895 27.7879 115.251 27.6818C115.607 27.5758 115.931 27.4186 116.223 27.2102C116.518 26.9981 116.768 26.7386 116.973 26.4318C117.181 26.1212 117.327 25.7652 117.411 25.3636H118.82C118.714 25.9583 118.52 26.4905 118.24 26.9602C117.96 27.4299 117.611 27.8295 117.195 28.1591C116.778 28.4848 116.31 28.733 115.791 28.9034C115.276 29.0739 114.725 29.1591 114.138 29.1591C113.145 29.1591 112.263 28.9167 111.49 28.4318C110.717 27.947 110.109 27.2576 109.666 26.3636C109.223 25.4697 109.001 24.4091 109.001 23.1818C109.001 21.9545 109.223 20.8939 109.666 20C110.109 19.1061 110.717 18.4167 111.49 17.9318C112.263 17.447 113.145 17.2045 114.138 17.2045C114.725 17.2045 115.276 17.2898 115.791 17.4602C116.31 17.6307 116.778 17.8807 117.195 18.2102C117.611 18.536 117.96 18.9337 118.24 19.4034C118.52 19.8693 118.714 20.4015 118.82 21ZM120.46 18.6136V17.3636H129.188V18.6136H125.528V29H124.119V18.6136H120.46ZM131.362 29V17.3636H135.43C136.241 17.3636 136.91 17.5038 137.436 17.7841C137.963 18.0606 138.355 18.4337 138.612 18.9034C138.87 19.3693 138.999 19.8864 138.999 20.4545C138.999 20.9545 138.91 21.3674 138.732 21.6932C138.557 22.0189 138.326 22.2765 138.038 22.4659C137.754 22.6553 137.446 22.7955 137.112 22.8864V23C137.468 23.0227 137.826 23.1477 138.186 23.375C138.546 23.6023 138.847 23.928 139.089 24.3523C139.332 24.7765 139.453 25.2955 139.453 25.9091C139.453 26.4924 139.321 27.017 139.055 27.483C138.79 27.9489 138.372 28.3182 137.8 28.5909C137.228 28.8636 136.483 29 135.567 29H131.362ZM132.771 27.75H135.567C136.487 27.75 137.141 27.572 137.527 27.2159C137.917 26.8561 138.112 26.4205 138.112 25.9091C138.112 25.5152 138.012 25.1515 137.811 24.8182C137.61 24.4811 137.324 24.2121 136.953 24.0114C136.582 23.8068 136.143 23.7045 135.635 23.7045H132.771V27.75ZM132.771 22.4773H135.385C135.809 22.4773 136.192 22.3939 136.533 22.2273C136.877 22.0606 137.15 21.8258 137.351 21.5227C137.555 21.2197 137.658 20.8636 137.658 20.4545C137.658 19.9432 137.48 19.5095 137.124 19.1534C136.768 18.7936 136.203 18.6136 135.43 18.6136H132.771V22.4773ZM151.587 23.1818C151.587 24.4091 151.365 25.4697 150.922 26.3636C150.479 27.2576 149.871 27.947 149.098 28.4318C148.325 28.9167 147.443 29.1591 146.45 29.1591C145.458 29.1591 144.575 28.9167 143.803 28.4318C143.03 27.947 142.422 27.2576 141.979 26.3636C141.536 25.4697 141.314 24.4091 141.314 23.1818C141.314 21.9545 141.536 20.8939 141.979 20C142.422 19.1061 143.03 18.4167 143.803 17.9318C144.575 17.447 145.458 17.2045 146.45 17.2045C147.443 17.2045 148.325 17.447 149.098 17.9318C149.871 18.4167 150.479 19.1061 150.922 20C151.365 20.8939 151.587 21.9545 151.587 23.1818ZM150.223 23.1818C150.223 22.1742 150.054 21.3239 149.717 20.6307C149.384 19.9375 148.931 19.4129 148.359 19.0568C147.791 18.7008 147.155 18.5227 146.45 18.5227C145.746 18.5227 145.107 18.7008 144.536 19.0568C143.967 19.4129 143.515 19.9375 143.178 20.6307C142.844 21.3239 142.678 22.1742 142.678 23.1818C142.678 24.1894 142.844 25.0398 143.178 25.733C143.515 26.4261 143.967 26.9508 144.536 27.3068C145.107 27.6629 145.746 27.8409 146.45 27.8409C147.155 27.8409 147.791 27.6629 148.359 27.3068C148.931 26.9508 149.384 26.4261 149.717 25.733C150.054 25.0398 150.223 24.1894 150.223 23.1818ZM163.774 23.1818C163.774 24.4091 163.553 25.4697 163.109 26.3636C162.666 27.2576 162.058 27.947 161.286 28.4318C160.513 28.9167 159.63 29.1591 158.638 29.1591C157.645 29.1591 156.763 28.9167 155.99 28.4318C155.217 27.947 154.609 27.2576 154.166 26.3636C153.723 25.4697 153.501 24.4091 153.501 23.1818C153.501 21.9545 153.723 20.8939 154.166 20C154.609 19.1061 155.217 18.4167 155.99 17.9318C156.763 17.447 157.645 17.2045 158.638 17.2045C159.63 17.2045 160.513 17.447 161.286 17.9318C162.058 18.4167 162.666 19.1061 163.109 20C163.553 20.8939 163.774 21.9545 163.774 23.1818ZM162.411 23.1818C162.411 22.1742 162.242 21.3239 161.905 20.6307C161.571 19.9375 161.119 19.4129 160.547 19.0568C159.979 18.7008 159.342 18.5227 158.638 18.5227C157.933 18.5227 157.295 18.7008 156.723 19.0568C156.155 19.4129 155.702 19.9375 155.365 20.6307C155.032 21.3239 154.865 22.1742 154.865 23.1818C154.865 24.1894 155.032 25.0398 155.365 25.733C155.702 26.4261 156.155 26.9508 156.723 27.3068C157.295 27.6629 157.933 27.8409 158.638 27.8409C159.342 27.8409 159.979 27.6629 160.547 27.3068C161.119 26.9508 161.571 26.4261 161.905 25.733C162.242 25.0398 162.411 24.1894 162.411 23.1818ZM166.143 29V17.3636H167.553V23.1364H167.689L172.916 17.3636H174.757L169.871 22.6136L174.757 29H173.053L169.007 23.5909L167.553 25.2273V29H166.143Z" fill="white"/>
</svg>
